<svg width="20" height="20" viewBox="0 0 20 20" fill="none" xmlns="http://www.w3.org/2000/svg">
<path fill-rule="evenodd" clip-rule="evenodd" d="M7.59804 17.163C7.78922 17.5213 7.98067 17.8442 8.16367 18.1303C6.21939 17.6931 4.53229 16.5763 3.36487 15.0426C4.13534 14.6087 5.12217 14.1589 6.30851 13.8298C6.64569 15.1522 7.12138 16.2692 7.59804 17.163ZM9.06867 16.3787C8.65456 15.6023 8.23956 14.6328 7.94056 13.484C8.58422 13.3884 9.27133 13.3333 10.0001 13.3333C10.7288 13.3333 11.4159 13.3884 12.0594 13.4839C11.7604 14.6328 11.3454 15.6023 10.9313 16.3787C10.5993 17.0012 10.2686 17.4982 10 17.8619C9.73145 17.4982 9.40067 17.0012 9.06867 16.3787ZM7.5 10C7.5 10.649 7.54367 11.265 7.62067 11.8466C8.36322 11.7327 9.15711 11.6667 10.0001 11.6667C10.843 11.6667 11.6369 11.7326 12.3793 11.8466C12.4563 11.2649 12.5 10.649 12.5 10C12.5 9.351 12.4563 8.73511 12.3793 8.15345C11.6369 8.26733 10.843 8.33333 10.0001 8.33333C9.15711 8.33333 8.36322 8.26733 7.62067 8.15345C7.54367 8.735 7.5 9.351 7.5 10ZM5.98542 7.80978C5.88863 8.49756 5.83333 9.22822 5.83333 10C5.83333 10.7718 5.88863 11.5024 5.98542 12.1902C4.57042 12.5701 3.39869 13.1058 2.49249 13.6212C1.96331 12.5262 1.66667 11.2978 1.66667 10C1.66667 8.70222 1.96331 7.47382 2.49248 6.37876C3.39858 6.89413 4.57033 7.42984 5.98542 7.80978ZM7.94056 6.51606C8.58422 6.61158 9.27133 6.66667 10.0001 6.66667C10.7288 6.66667 11.4159 6.61159 12.0594 6.51608C11.7604 5.36728 11.3454 4.3977 10.9313 3.62133C10.5993 2.99882 10.2686 2.50173 10 2.13813C9.73145 2.50173 9.40067 2.99882 9.06867 3.62131C8.65456 4.39768 8.23956 5.36726 7.94056 6.51606ZM14.0146 7.80989C14.1113 8.49767 14.1667 9.22833 14.1667 10C14.1667 10.7718 14.1113 11.5023 14.0146 12.1901C15.4296 12.5701 16.6013 13.1058 17.5076 13.6212C18.0367 12.5261 18.3333 11.2977 18.3333 10C18.3333 8.70233 18.0367 7.47386 17.5076 6.37881C16.6014 6.89419 15.4297 7.42989 14.0146 7.80989ZM16.6351 4.95753C15.8646 5.39146 14.8778 5.84117 13.6916 6.17031C13.3543 4.84782 12.8787 3.73077 12.402 2.83702C12.2108 2.47863 12.0193 2.15583 11.8363 1.86967C13.7807 2.30692 15.4678 3.42373 16.6351 4.95753ZM6.3085 6.17028C5.12223 5.84112 4.13544 5.39141 3.36488 4.95748C4.53229 3.42371 6.21939 2.30692 8.16356 1.86967C7.98067 2.15583 7.78922 2.47862 7.59803 2.837C7.12138 3.73074 6.64569 4.84779 6.3085 6.17028ZM13.6916 13.8297C13.3543 15.1522 12.8787 16.2692 12.402 17.163C12.2108 17.5213 12.0193 17.8442 11.8363 18.1303C13.7807 17.6931 15.4678 16.5762 16.6352 15.0424C15.8647 14.6086 14.8779 14.1589 13.6916 13.8297ZM10 20C15.5229 20 20 15.5229 20 10C20 4.47716 15.5229 0 10 0C4.47716 0 0 4.47716 0 10C0 15.5229 4.47716 20 10 20Z" fill="#CDCDCD"/>
</svg>
