<svg width="60" height="60" viewBox="0 0 60 60" fill="none" xmlns="http://www.w3.org/2000/svg">
<path d="M29.9999 59.9998C46.5684 59.9998 59.9998 46.5684 59.9998 29.9999C59.9998 13.4314 46.5684 0 29.9999 0C13.4314 0 0 13.4314 0 29.9999C0 46.5684 13.4314 59.9998 29.9999 59.9998Z" fill="#05AAE6"/>
<path fill-rule="evenodd" clip-rule="evenodd" d="M22.5777 37.5538L38.0214 37.6713V50.2131L22.5777 50.0956V37.5538Z" fill="#F9DCA4"/>
<path fill-rule="evenodd" clip-rule="evenodd" d="M51.9205 50.4782C49.1173 53.4865 45.7239 55.8846 41.9524 57.5228C38.1809 59.161 34.1121 60.0042 30.0002 59.9995C28.7549 59.9995 27.5108 59.9226 26.2749 59.7694C22.4848 59.2263 18.8177 58.0293 15.4371 56.2316C12.584 54.6436 10.008 52.6025 7.80988 50.1879L9.05551 47.1782L22.5749 41.1471C22.5749 45.55 23.8468 50.8753 29.7972 50.9656C37.1468 51.0762 38.0205 45.65 38.0205 41.1112L50.438 47.2102L51.9205 50.4782Z" fill="#434955"/>
<path opacity="0.11" fill-rule="evenodd" clip-rule="evenodd" d="M38.0254 37.6484V41.1241C38.0225 41.5079 37.9904 41.8909 37.9293 42.2698C37.8529 42.7374 37.7243 43.1949 37.5458 43.6338C32.3283 47.6766 24.0128 44.36 22.6856 37.4542L38.0254 37.6484Z" fill="#4D4D4D"/>
<path fill-rule="evenodd" clip-rule="evenodd" d="M30.2225 8.18665C50.8837 8.18665 42.8323 42.4255 30.2225 42.4255C18.3138 42.4255 9.56139 8.18665 30.2225 8.18665Z" fill="#FFE8BE"/>
<path fill-rule="evenodd" clip-rule="evenodd" d="M17.8301 23.3458C14.8495 24.6458 17.3835 30.808 19.2592 30.7808C18.4812 28.3697 18.0013 25.8735 17.8301 23.3458Z" fill="#F9DCA4"/>
<path fill-rule="evenodd" clip-rule="evenodd" d="M42.8547 23.3448C45.8353 24.6448 43.3013 30.808 41.4266 30.7798C42.204 28.369 42.6836 25.8721 42.8547 23.3448Z" fill="#F9DCA4"/>
<path fill-rule="evenodd" clip-rule="evenodd" d="M22.5746 41.1475C18.0716 42.2172 13.7517 43.9473 9.75518 46.2814C8.15809 47.1989 8.19693 48.6106 8.55421 49.1222C9.83188 50.9494 13.9435 48.6154 15.4367 47.996C17.9884 46.8977 20.594 45.9292 23.2435 45.0941C22.7035 43.8523 22.4739 42.4978 22.5746 41.1475Z" fill="#677079"/>
<path fill-rule="evenodd" clip-rule="evenodd" d="M30.3 58.8597C27.3612 56.7335 22.6175 50.9277 22.5748 44.0898C22.5748 51.5461 38.0214 51.517 38.0214 44.0607C37.3884 51.8626 33.1835 56.8558 30.3 58.8597Z" fill="white"/>
<path fill-rule="evenodd" clip-rule="evenodd" d="M38.1333 40.9292C42.2833 42.1412 46.2612 43.8789 49.9702 46.1001C51.5673 47.0175 51.5285 48.4282 51.1712 48.9399C49.8935 50.7671 45.7819 48.4331 44.2887 47.8146C41.3955 46.6156 38.3139 45.0282 37.4634 44.8758C38.0038 43.6341 38.2337 42.2796 38.1333 40.9292Z" fill="#677079"/>
<path fill-rule="evenodd" clip-rule="evenodd" d="M22.5777 39.6993C22.469 46.976 28.169 53.4954 32.3399 59.2916C32.2166 59.1178 32.4661 59.4663 32.3399 59.2916C31.7836 59.2595 31.5826 59.7188 31.001 59.6265C25.8321 58.8081 19.9496 55.777 18.3981 53.345C18.104 52.8848 21.6408 49.5469 21.4574 49.0401C21.3583 48.7644 18.3777 49.1333 16.6826 49.6683C16.5583 49.7071 16.5447 49.4372 16.5166 49.31C15.7311 45.7061 17.0923 41.6644 22.5777 39.6993Z" fill="#677079"/>
<path fill-rule="evenodd" clip-rule="evenodd" d="M30.6117 58.3349C30.6576 58.3399 30.7021 58.3543 30.7424 58.377C30.7828 58.3997 30.818 58.4304 30.8462 58.4671C30.8743 58.5039 30.8947 58.5459 30.9062 58.5908C30.9176 58.6356 30.9199 58.6823 30.9128 58.728C30.9057 58.7737 30.8894 58.8176 30.8649 58.8568C30.8405 58.8961 30.8083 58.93 30.7704 58.9565C30.7324 58.983 30.6895 59.0015 30.6442 59.011C30.5989 59.0205 30.5522 59.0207 30.5068 59.0116C28.0943 58.6134 25.7495 57.879 23.5408 56.83C21.8342 56.123 20.3402 54.9853 19.2049 53.5281C18.9427 53.1155 19.7748 52.0465 20.6515 50.9261C21.2699 50.2326 21.8053 49.4692 22.2466 48.6514C21.7259 48.594 21.2011 48.5846 20.6786 48.6232C19.6682 48.6453 18.6623 48.7669 17.6757 48.9863C17.5689 49.0126 17.4631 49.0427 17.3612 49.0737L17.3379 49.0805C17.2456 49.1044 17.1479 49.0945 17.0623 49.0524C16.9768 49.0104 16.9092 48.939 16.8718 48.8514C16.7557 48.6018 16.6865 48.3329 16.668 48.0582C16.6255 47.6373 16.6238 47.2133 16.6631 46.7922C16.809 45.2359 17.4007 43.7548 18.3673 42.5265C19.3339 41.2981 20.6343 40.3747 22.1126 39.8669C22.1971 39.8331 22.2915 39.8341 22.3752 39.8699C22.4589 39.9057 22.5249 39.9732 22.5587 40.0577C22.5926 40.1422 22.5915 40.2366 22.5557 40.3203C22.52 40.4039 22.4524 40.47 22.368 40.5038C21.0091 40.9665 19.8127 41.8116 18.9224 42.9375C18.032 44.0635 17.4855 45.4225 17.3485 46.8514C17.3126 47.2279 17.3133 47.607 17.3505 47.9834C17.3627 48.1052 17.3825 48.2262 17.4097 48.3456L17.5117 48.3193C18.5471 48.0892 19.6027 47.9618 20.6631 47.9388C21.3798 47.8558 22.1056 47.9689 22.7631 48.266C22.8178 48.3012 22.8613 48.3514 22.8884 48.4106C22.8945 48.4235 22.8997 48.4368 22.9039 48.4504L22.9117 48.4766C23.0369 48.9815 22.0903 50.1951 21.1903 51.3475C20.7178 51.9489 20.2485 52.5527 19.7825 53.1592C20.8513 54.5074 22.2483 55.5588 23.8398 56.2125C25.9869 57.2327 28.2663 57.9471 30.6117 58.3349Z" fill="#434955"/>
<path fill-rule="evenodd" clip-rule="evenodd" d="M38.0214 39.6993C38.134 47.1954 31.8204 53.9809 27.6234 59.9061C37.2903 60.0518 40.301 55.4838 42.202 53.344C42.5641 52.9362 38.9593 49.5469 39.1428 49.0401C39.2418 48.7644 42.2224 49.1333 43.9166 49.6683C44.0418 49.7071 44.0554 49.4382 44.0835 49.31C44.869 45.7061 43.5078 41.6644 38.0214 39.6993Z" fill="#677079"/>
<path fill-rule="evenodd" clip-rule="evenodd" d="M28.4594 59.417C28.3688 59.4091 28.285 59.3656 28.2264 59.2959C28.1679 59.2263 28.1394 59.1363 28.1473 59.0456C28.1551 58.955 28.1987 58.8712 28.2683 58.8126C28.338 58.7541 28.428 58.7256 28.5186 58.7335C30.8486 58.878 33.1768 58.4252 35.2827 57.418C37.4736 56.5068 39.3881 55.0385 40.8361 53.1587C40.838 53.1549 40.1507 52.2743 39.4283 51.3481C38.5283 50.1947 37.5817 48.9811 37.707 48.4762L37.7138 48.451C37.7184 48.437 37.7239 48.4234 37.7303 48.4102C37.7574 48.3508 37.8008 48.3003 37.8555 48.2646C38.5128 47.968 39.2383 47.8553 39.9546 47.9383C41.0153 47.9613 42.0712 48.0888 43.107 48.3189L43.208 48.3451C43.2352 48.2258 43.255 48.1048 43.2672 47.983C43.3044 47.6066 43.305 47.2275 43.2691 46.851C43.132 45.4222 42.5854 44.0635 41.695 42.9377C40.8047 41.8119 39.6084 40.967 38.2497 40.5044C38.2079 40.4875 38.1698 40.4626 38.1376 40.4311C38.1054 40.3995 38.0797 40.3619 38.0621 40.3205C38.0444 40.279 38.0351 40.2345 38.0346 40.1894C38.0342 40.1443 38.0426 40.0996 38.0594 40.0578C38.0762 40.0159 38.1011 39.9778 38.1327 39.9457C38.1642 39.9135 38.2018 39.8878 38.2433 39.8701C38.2848 39.8525 38.3293 39.8431 38.3744 39.8427C38.4195 39.8422 38.4642 39.8506 38.506 39.8675C39.984 40.3753 41.2841 41.2987 42.2505 42.5268C43.2169 43.755 43.8085 45.2358 43.9546 46.7917C43.9938 47.2129 43.9922 47.6369 43.9497 48.0578C43.9311 48.3325 43.862 48.6014 43.7458 48.851C43.7084 48.9386 43.6408 49.0099 43.5553 49.052C43.4698 49.094 43.372 49.104 43.2798 49.0801L43.2565 49.0743C43.1529 49.0416 43.0483 49.0121 42.9429 48.9859C41.9559 48.7668 40.9498 48.6455 39.939 48.6238C39.417 48.5849 38.8924 48.594 38.372 48.651C38.8135 49.4689 39.3492 50.2323 39.9681 50.9257C40.8439 52.0481 41.6769 53.116 41.4138 53.5277C39.893 55.5189 37.8763 57.0763 35.5652 58.0442C33.3523 59.0996 30.9062 59.5728 28.4594 59.417Z" fill="#434955"/>
<path d="M38.9424 53.8216C39.3923 53.8216 39.757 53.4569 39.757 53.007C39.757 52.5571 39.3923 52.1924 38.9424 52.1924C38.4925 52.1924 38.1277 52.5571 38.1277 53.007C38.1277 53.4569 38.4925 53.8216 38.9424 53.8216Z" fill="#E6E6E6"/>
<path d="M21.7741 53.8216C22.224 53.8216 22.5887 53.4569 22.5887 53.007C22.5887 52.5571 22.224 52.1924 21.7741 52.1924C21.3242 52.1924 20.9595 52.5571 20.9595 53.007C20.9595 53.4569 21.3242 53.8216 21.7741 53.8216Z" fill="#E6E6E6"/>
<path d="M18.7524 47.4866C19.2023 47.4866 19.5671 47.1218 19.5671 46.6719C19.5671 46.222 19.2023 45.8573 18.7524 45.8573C18.3025 45.8573 17.9378 46.222 17.9378 46.6719C17.9378 47.1218 18.3025 47.4866 18.7524 47.4866Z" fill="#E6E6E6"/>
<path d="M41.9441 47.4866C42.394 47.4866 42.7587 47.1218 42.7587 46.6719C42.7587 46.222 42.394 45.8573 41.9441 45.8573C41.4942 45.8573 41.1295 46.222 41.1295 46.6719C41.1295 47.1218 41.4942 47.4866 41.9441 47.4866Z" fill="#E6E6E6"/>
<path fill-rule="evenodd" clip-rule="evenodd" d="M16.538 25.0308C16.627 24.6003 16.8211 24.1983 17.1031 23.8609C17.0791 26.3359 17.8331 28.7559 19.2584 30.7794C17.7293 16.2891 20.7409 13.7444 20.7409 13.7444C20.7409 13.7444 29.7875 20.5707 39.837 13.726C39.837 13.726 43.0205 16.2881 41.4914 30.7784C43.0205 28.5211 43.3652 26.5969 43.4759 23.793C43.8508 24.1596 44.095 24.6392 44.171 25.158C44.171 25.158 45.8933 16.3522 42.0798 11.4872C42.4254 10.9406 44.1914 9.41046 44.737 9.44736C45.2827 9.48425 42.4069 8.28231 38.9118 8.86483C39.7417 7.99052 40.7146 7.26395 41.7885 6.71629C40.0144 6.37242 38.2029 6.2621 36.4001 6.38813C37.4117 5.62672 38.512 4.99099 39.6768 4.49493C36.8686 3.64334 33.8765 3.60563 31.0477 4.38619C32.0576 3.19434 33.2644 2.18455 34.6157 1.40076C34.6157 1.40076 25.405 1.91047 20.5992 8.75512C20.2855 7.6677 20.318 6.5096 20.6924 5.44153C20.6924 5.44153 14.6118 11.1493 16.538 25.0308Z" fill="#464449"/>
<path fill-rule="evenodd" clip-rule="evenodd" d="M30.3486 44.994C24.1185 42.1348 26.6399 38.0804 26.6399 38.0804C26.6968 38.5306 26.8802 38.9554 27.169 39.3055C27.4577 39.6555 27.8398 39.9165 28.2709 40.0581C28.7233 39.0771 29.4435 38.2438 30.3486 37.6542C31.1969 38.2942 31.8918 39.1155 32.3826 40.0581C32.8136 39.9164 33.1957 39.6554 33.4844 39.3053C33.7731 38.9553 33.9566 38.5305 34.0136 38.0804C34.0136 38.0804 36.5767 42.1348 30.3486 44.994Z" fill="#464449"/>
<path fill-rule="evenodd" clip-rule="evenodd" d="M20.2788 23.5363L20.3399 23.5217C27.2448 21.8062 28.8477 23.5469 29.2205 24.4372C29.9477 24.221 30.7225 24.2244 31.4477 24.4469C31.8128 23.5596 33.4011 21.7994 40.3331 23.5217L40.3933 23.5363L41.4652 23.8207C41.5546 23.8456 41.6304 23.905 41.6761 23.9857C41.7218 24.0665 41.7336 24.1621 41.7089 24.2515C41.6842 24.341 41.6251 24.417 41.5445 24.4629C41.4638 24.5088 41.3683 24.5209 41.2788 24.4964L40.6545 24.3275C40.6739 25.7392 40.3477 29.6994 36.1205 30.0023C31.6157 30.3236 31.3293 26.2333 31.3322 25.1469C30.688 24.9235 29.9881 24.9187 29.3409 25.1333C29.3458 26.2003 29.0749 30.3246 24.5516 30.0023C20.3244 29.6994 19.9982 25.7392 20.0176 24.3275L19.3943 24.4964C19.3499 24.5088 19.3036 24.5122 19.2579 24.5066C19.2122 24.501 19.168 24.4864 19.128 24.4637C19.0879 24.4411 19.0527 24.4107 19.0243 24.3744C18.996 24.3382 18.9751 24.2966 18.9628 24.2523C18.9505 24.2079 18.947 24.1615 18.9526 24.1158C18.9582 24.0701 18.9728 24.026 18.9955 23.9859C19.0181 23.9459 19.0485 23.9106 19.0848 23.8823C19.1211 23.8539 19.1626 23.833 19.2069 23.8207L20.2788 23.5363Z" fill="#677079"/>
<path opacity="0.5" fill-rule="evenodd" clip-rule="evenodd" d="M35.076 23.1873C35.8605 23.0936 36.6531 23.0874 37.4391 23.1688L34.6226 29.4921C33.9094 29.2947 33.2696 28.8931 32.7818 28.3368L35.076 23.1873ZM23.8371 22.8766C24.6978 22.7739 25.5672 22.767 26.4294 22.8562L23.3391 29.7902C22.5576 29.5738 21.8564 29.1337 21.3216 28.5242L23.8362 22.8776L23.8371 22.8766ZM27.3226 23.0261L24.1711 29.963C24.2941 29.9792 24.4209 29.9921 24.5517 30.0018C24.6313 30.0067 24.7099 30.0115 24.7866 30.0144L27.876 23.2164C27.6959 23.1411 27.511 23.0778 27.3226 23.0271V23.0261ZM38.2546 23.3242L35.3808 29.6494C35.4928 29.6643 35.6083 29.6759 35.7274 29.6844C35.8002 29.6892 35.8721 29.6941 35.942 29.696L38.7595 23.497C38.5951 23.4285 38.4264 23.3708 38.2546 23.3242Z" fill="#E6E6E6"/>
<path fill-rule="evenodd" clip-rule="evenodd" d="M20.2788 23.5363C20.2987 23.5295 20.3192 23.5246 20.3399 23.5217C27.2448 21.8062 28.8477 23.5469 29.2205 24.4372C29.9477 24.221 30.7225 24.2244 31.4477 24.4469C31.8128 23.5596 33.4011 21.7994 40.3331 23.5217C40.3536 23.5246 40.3738 23.5295 40.3933 23.5363C40.738 23.6227 41.0943 23.7168 41.4652 23.8207C41.5546 23.8456 41.6304 23.905 41.6761 23.9857C41.7218 24.0665 41.7336 24.1621 41.7089 24.2515C41.6842 24.341 41.6251 24.417 41.5445 24.4629C41.4638 24.5088 41.3683 24.5209 41.2788 24.4964C41.0652 24.4372 40.8584 24.3809 40.6545 24.3275C40.6739 25.7392 40.3477 29.6994 36.1205 30.0023C31.6157 30.3236 31.3293 26.2333 31.3322 25.1469C30.688 24.9235 29.9881 24.9187 29.3409 25.1333C29.3458 26.2003 29.0749 30.3246 24.5516 30.0023C20.3244 29.6994 19.9982 25.7392 20.0176 24.3275C19.8137 24.3809 19.6069 24.4372 19.3943 24.4964C19.3499 24.5088 19.3036 24.5122 19.2579 24.5066C19.2122 24.501 19.168 24.4864 19.128 24.4637C19.0879 24.4411 19.0527 24.4107 19.0243 24.3744C18.996 24.3382 18.9751 24.2966 18.9628 24.2523C18.9505 24.2079 18.947 24.1615 18.9526 24.1158C18.9582 24.0701 18.9728 24.026 18.9955 23.9859C19.0181 23.9459 19.0485 23.9106 19.0848 23.8823C19.1211 23.8539 19.1626 23.833 19.2069 23.8207C19.5778 23.7168 19.9341 23.6217 20.2788 23.5363ZM36.071 29.3013C39.9128 29.0265 39.9933 25.1586 39.9487 24.1479C32.3632 22.2887 32.0535 24.7052 32.0409 24.9003L32.039 24.9227C32.039 24.9363 31.6972 29.6129 36.071 29.3013ZM20.3399 23.5217L20.4283 23.5197C20.3986 23.5163 20.3685 23.517 20.339 23.5217H20.3399ZM20.7244 24.1469C20.6788 25.1586 20.7603 29.0265 24.6011 29.3013C28.9749 29.6129 28.6331 24.9363 28.6322 24.9227V24.9003C28.6186 24.7052 28.3089 22.2877 20.7244 24.1469Z" fill="#464449"/>
</svg>
