<svg width="20" height="20" viewBox="0 0 20 20" fill="none" xmlns="http://www.w3.org/2000/svg">
<path fill-rule="evenodd" clip-rule="evenodd" d="M15.6105 0C16.0927 0 16.5552 0.191555 16.8962 0.532536L19.4675 3.10383C19.8085 3.44481 20 3.90726 20 4.38948V17.2727C20 18.779 18.779 20 17.2727 20H2.72727C1.22105 20 0 18.779 0 17.2727V2.72727C0 1.22105 1.22105 0 2.72727 0H15.6105ZM2.72727 1.81818C2.2252 1.81818 1.81818 2.2252 1.81818 2.72727V17.2727C1.81818 17.7748 2.2252 18.1818 2.72727 18.1818H3.63636V12.7273C3.63636 11.221 4.85741 10 6.36364 10H13.6364C15.1426 10 16.3636 11.221 16.3636 12.7273V18.1818H17.2727C17.7748 18.1818 18.1818 17.7748 18.1818 17.2727V5.29857C18.1818 4.81635 17.9903 4.3539 17.6493 4.01292L15.9871 2.35072C15.6461 2.00974 15.1836 1.81818 14.7015 1.81818H14.5455V3.63636C14.5455 5.14259 13.3245 6.36364 11.8182 6.36364H8.18182C6.67559 6.36364 5.45455 5.14259 5.45455 3.63636V1.81818H2.72727ZM14.5455 18.1818V12.7273C14.5455 12.2252 14.1385 11.8182 13.6364 11.8182H6.36364C5.86156 11.8182 5.45455 12.2252 5.45455 12.7273V18.1818H14.5455ZM7.27273 1.81818H12.7273V3.63636C12.7273 4.13844 12.3203 4.54545 11.8182 4.54545H8.18182C7.67975 4.54545 7.27273 4.13844 7.27273 3.63636V1.81818Z" fill="white"/>
</svg>
