<svg width="15" height="15" viewBox="0 0 15 15" fill="none" xmlns="http://www.w3.org/2000/svg">
<path d="M1.76928 5.21716L2.26929 6.208C2.58761 6.83883 2.74677 7.15417 2.74677 7.49999C2.74677 7.8458 2.58761 8.16115 2.2693 8.79198L1.76928 9.78281C0.345479 12.6043 -0.366419 14.0151 0.188727 14.7147C0.743873 15.4143 2.05845 14.763 4.6876 13.4605L11.9034 9.88567C13.9678 8.86294 15 8.35151 15 7.49999C15 6.64847 13.9678 6.13704 11.9034 5.11431L4.68761 1.53949C2.05846 0.236969 0.743873 -0.414299 0.188727 0.2853C-0.366419 0.984899 0.345479 2.39565 1.76928 5.21716Z" fill="#05AAE6"/>
</svg>
