<svg width="107" height="32" viewBox="0 0 107 32" fill="none" xmlns="http://www.w3.org/2000/svg">
<path d="M34.415 0.499998C34.625 0.499998 34.79 0.604998 34.91 0.814999C35.06 0.994999 35.09 1.19 35 1.4L26.45 21.155C26.36 21.395 26.18 21.515 25.91 21.515H23.57C23.39 21.515 23.24 21.575 23.12 21.695C23 21.815 22.94 21.965 22.94 22.145V31.325C22.94 31.505 22.865 31.67 22.715 31.82C22.595 31.94 22.445 32 22.265 32H12.905C12.725 32 12.56 31.94 12.41 31.82C12.29 31.67 12.23 31.505 12.23 31.325V22.145C12.23 21.965 12.17 21.815 12.05 21.695C11.93 21.575 11.78 21.515 11.6 21.515H9.395C9.155 21.515 8.96 21.395 8.81 21.155L0.17 1.355C0.14 1.295 0.125 1.22 0.125 1.13C0.125 0.979998 0.185 0.844998 0.305 0.724998C0.425 0.574998 0.575 0.499998 0.755 0.499998H10.52C10.79 0.499998 10.97 0.619998 11.06 0.859999L15.38 10.715C15.47 10.955 15.665 11.075 15.965 11.075H19.115C19.415 11.075 19.61 10.955 19.7 10.715L24.065 0.859999C24.155 0.619998 24.335 0.499998 24.605 0.499998H34.415ZM38.9227 32C38.5627 32 38.2927 31.835 38.1127 31.505C38.0527 31.415 38.0227 31.265 38.0227 31.055V23.855C38.0227 23.585 38.1127 23.345 38.2927 23.135C38.5027 22.925 38.7577 22.82 39.0577 22.82H61.7827C62.2627 22.82 62.6227 22.715 62.8627 22.505C63.1027 22.295 63.2227 22.025 63.2227 21.695C63.2227 21.365 63.0877 21.095 62.8177 20.885C62.5777 20.645 62.2327 20.525 61.7827 20.525L48.1027 20.435C46.1527 20.405 44.3527 20.015 42.7027 19.265C41.0827 18.515 39.7777 17.375 38.7877 15.845C37.7977 14.315 37.3027 12.47 37.3027 10.31C37.3027 6.98 38.3227 4.52 40.3627 2.93C42.4027 1.31 44.9827 0.499998 48.1027 0.499998H72.8977C73.0777 0.499998 73.2277 0.574998 73.3477 0.724998C73.4677 0.874997 73.5277 1.055 73.5277 1.265V9.095C73.5277 9.305 73.4677 9.485 73.3477 9.635C73.2277 9.785 73.0777 9.86 72.8977 9.86H49.8127C49.3327 9.86 48.9727 9.965 48.7327 10.175C48.4927 10.385 48.3727 10.655 48.3727 10.985C48.3727 11.315 48.4927 11.6 48.7327 11.84C49.0027 12.05 49.3627 12.155 49.8127 12.155L64.1227 12.2C67.1227 12.2 69.5677 13.055 71.4577 14.765C73.3477 16.445 74.2927 18.905 74.2927 22.145C74.2927 24.005 73.8427 25.685 72.9427 27.185C72.0727 28.685 70.8577 29.87 69.2977 30.74C67.7677 31.58 66.0427 32 64.1227 32H38.9227ZM82.9359 32C81.8559 32 80.8209 31.7 79.8309 31.1C78.8409 30.5 78.0459 29.72 77.4459 28.76C76.8459 27.77 76.5459 26.72 76.5459 25.61V1.04C76.5459 0.889999 76.6059 0.754999 76.7259 0.634999C76.8759 0.484999 77.0259 0.409999 77.1759 0.409999H86.6709C86.8509 0.409999 87.0009 0.484999 87.1209 0.634999C87.2409 0.754999 87.3009 0.889999 87.3009 1.04L87.4359 21.515C87.4359 21.695 87.4959 21.845 87.6159 21.965C87.7359 22.085 87.8859 22.145 88.0659 22.145H105.976C106.156 22.145 106.306 22.205 106.426 22.325C106.546 22.445 106.606 22.595 106.606 22.775V31.37C106.606 31.55 106.546 31.7 106.426 31.82C106.306 31.94 106.156 32 105.976 32H82.9359Z" fill="#05AAE6"/>
</svg>
