<?xml version="1.0" encoding="utf-8"?>
<!-- Generator: Adobe Illustrator 28.0.0, SVG Export Plug-In . SVG Version: 6.00 Build 0)  -->
<svg version="1.1" id="Слой_1" xmlns="http://www.w3.org/2000/svg" xmlns:xlink="http://www.w3.org/1999/xlink" x="0px" y="0px"
	 viewBox="0 0 107 107" style="enable-background:new 0 0 107 107;" xml:space="preserve">
<style type="text/css">
	.st0{fill:#05AAE6;}
</style>
<path class="st0" d="M34.4,36.6c0.2,0,0.4,0.1,0.5,0.3c0.2,0.2,0.2,0.4,0.1,0.6l-8.5,19.8c-0.1,0.2-0.3,0.4-0.5,0.4h-2.3
	c-0.2,0-0.3,0.1-0.4,0.2c-0.1,0.1-0.2,0.3-0.2,0.5v9.2c0,0.2-0.1,0.3-0.2,0.5c-0.1,0.1-0.3,0.2-0.5,0.2h-9.4c-0.2,0-0.3-0.1-0.5-0.2
	c-0.1-0.2-0.2-0.3-0.2-0.5v-9.2c0-0.2-0.1-0.3-0.2-0.5s-0.3-0.2-0.4-0.2H9.4c-0.2,0-0.4-0.1-0.6-0.4L0.2,37.4c0-0.1,0-0.1,0-0.2
	c0-0.2,0.1-0.3,0.2-0.4c0.1-0.2,0.3-0.2,0.4-0.2h9.8c0.3,0,0.4,0.1,0.5,0.4l4.3,9.9c0.1,0.2,0.3,0.4,0.6,0.4h3.1
	c0.3,0,0.5-0.1,0.6-0.4l4.4-9.9c0.1-0.2,0.3-0.4,0.5-0.4H34.4z M38.9,68.1c-0.4,0-0.6-0.2-0.8-0.5c-0.1-0.1-0.1-0.2-0.1-0.4v-7.2
	c0-0.3,0.1-0.5,0.3-0.7c0.2-0.2,0.5-0.3,0.8-0.3h22.7c0.5,0,0.8-0.1,1.1-0.3c0.2-0.2,0.4-0.5,0.4-0.8c0-0.3-0.1-0.6-0.4-0.8
	c-0.2-0.2-0.6-0.4-1-0.4l-13.7-0.1c-2,0-3.8-0.4-5.4-1.2c-1.6-0.8-2.9-1.9-3.9-3.4c-1-1.5-1.5-3.4-1.5-5.5c0-3.3,1-5.8,3.1-7.4
	c2-1.6,4.6-2.4,7.7-2.4h24.8c0.2,0,0.3,0.1,0.5,0.2c0.1,0.1,0.2,0.3,0.2,0.5v7.8c0,0.2-0.1,0.4-0.2,0.5c-0.1,0.2-0.3,0.2-0.5,0.2
	H49.8c-0.5,0-0.8,0.1-1.1,0.3c-0.2,0.2-0.4,0.5-0.4,0.8c0,0.3,0.1,0.6,0.4,0.9c0.3,0.2,0.6,0.3,1.1,0.3l14.3,0c3,0,5.4,0.9,7.3,2.6
	c1.9,1.7,2.8,4.1,2.8,7.4c0,1.9-0.5,3.5-1.3,5c-0.9,1.5-2.1,2.7-3.6,3.6c-1.5,0.8-3.3,1.3-5.2,1.3H38.9z M82.9,68.1
	c-1.1,0-2.1-0.3-3.1-0.9c-1-0.6-1.8-1.4-2.4-2.3c-0.6-1-0.9-2-0.9-3.2V37.1c0-0.2,0.1-0.3,0.2-0.4c0.2-0.2,0.3-0.2,0.5-0.2h9.5
	c0.2,0,0.3,0.1,0.5,0.2c0.1,0.1,0.2,0.3,0.2,0.4l0.1,20.5c0,0.2,0.1,0.3,0.2,0.5c0.1,0.1,0.3,0.2,0.5,0.2H106c0.2,0,0.3,0.1,0.5,0.2
	c0.1,0.1,0.2,0.3,0.2,0.4v8.6c0,0.2-0.1,0.3-0.2,0.4c-0.1,0.1-0.3,0.2-0.5,0.2H82.9z"/>
</svg>
